{"title":"Thunderbirds Are Go S01E19 Extraction 1080P WEB-DL DD5 1 H 264","uid":12926721,"size":965374085,"categoryP":"video","categoryS":"hd___tv_shows","magnet":"?xt=urn:btih:37a29272b6cb4a9c7aaf1ea7ddf2c8b1b753c4fd&amp;dn=Thunderbirds+Are+Go+S01E19+Extraction+1080P+WEB-DL+DD5+1+H+264&amp;tr=udp%3A%2F%2Ftracker.leechers-paradise.org%3A6969&amp;tr=udp%3A%2F%2Fzer0day.ch%3A1337&amp;tr=udp%3A%2F%2Fopen.demonii.com%3A1337&amp;tr=udp%3A%2F%2Ftracker.coppersurfer.tk%3A6969&amp;tr=udp%3A%2F%2Fexodus.desync.com%3A6969","seeders":0,"leechers":1,"uploader":"jmanwf","files":1,"time":1449477995,"description":"Seismologist and his son Robert and Aiden Williams come across a wildcat automated Hydro-methane Mining rig. They investigate and when they start to alert the authorities, an earthquake caused by the machine opens up the Earth and swallows the machine whole - with father and son inside. Gordon makes a daring underground rescue in TB4 to retrieve the boy and his injured father while Virgil must find a way to shut down the out of control rig using TB2.\r\n\r\n\r\n\r\nVideo\r\nID : 2\r\nFormat : AVC\r\nFormat/Info : Advanced Video Codec\r\nFormat profile :   \r\nFormat settings, CABAC : Yes\r\nFormat settings, ReFrames : 4 frames\r\nCodec ID : avc1\r\nCodec ID/Info : Advanced Video Coding\r\nDuration : 22mn 22s\r\nBit rate : 5 242 Kbps\r\nWidth : 1 912 pixels\r\nHeight : 1 072 pixels\r\nDisplay aspect ratio : 16:9\r\nFrame rate mode : Constant\r\nFrame rate : 25.000 fps\r\nColor space : YUV\r\nChroma subsampling : 4:2:0\r\nBit depth : 8 bits\r\nScan type : Progressive\r\nBits/(Pixel*Frame) : 0.102\r\nStream size : 839 MiB (91%)\r\nLanguage : English\r\nEncoded date : UTC 2015-12-07 04:44:46\r\nTagged date : UTC 2015-12-07 04:46:52\r\nColor range : Limited\r\nColor primaries : BT.709\r\nTransfer characteristics : BT.709\r\nMatrix coefficients : BT.709\r\n\r\nAudio #1\r\nID : 1\r\nFormat : AAC\r\nFormat/Info : Advanced Audio Codec\r\nFormat profile : LC\r\nCodec ID : 40\r\nDuration : 22mn 22s\r\nBit rate mode : Variable\r\nBit rate : 125 Kbps\r\nMaximum bit rate : 195 Kbps\r\nChannel(s) : 2 channels\r\nChannel positions : Front: L R\r\nSampling rate : 48.0 KHz\r\nCompression mode : Lossy\r\nStream size : 20.0 MiB (2%)\r\nLanguage : English\r\nEncoded date : UTC 2015-12-07 04:44:46\r\nTagged date : UTC 2015-12-07 04:46:52\r\n\r\nAudio #2\r\nID : 3\r\nFormat : AC-3\r\nFormat/Info : Audio Coding 3\r\nMode extension : CM (complete main)\r\nFormat settings, Endianness : Big\r\nCodec ID : ac-3\r\nDuration : 22mn 22s\r\nBit rate mode : Constant\r\nBit rate : 384 Kbps\r\nChannel(s) : 6 channels\r\nChannel positions : Front: L C R, Side: L R, LFE\r\nSampling rate : 48.0 KHz\r\nBit depth : 16 bits\r\nCompression mode : Lossy\r\nStream size : 61.4 MiB (7%)\r\nLanguage : English\r\nEncoded date : UTC 2015-12-07 04:44:46\r\nTagged date : UTC 2015-12-07 04:46:52\r\n\r\n\r\n \nhttps://itunes.apple.com/au/tv-season/thunderbirds-are-go-vol.-2/id1050875675","torrent":{"xt":"urn:btih:37a29272b6cb4a9c7aaf1ea7ddf2c8b1b753c4fd","amp;dn":"Thunderbirds+Are+Go+S01E19+Extraction+1080P+WEB-DL+DD5+1+H+264","amp;tr":["udp%3A%2F%2Ftracker.leechers-paradise.org%3A6969","udp%3A%2F%2Fzer0day.ch%3A1337","udp%3A%2F%2Fopen.demonii.com%3A1337","udp%3A%2F%2Ftracker.coppersurfer.tk%3A6969","udp%3A%2F%2Fexodus.desync.com%3A6969"],"infoHash":"37a29272b6cb4a9c7aaf1ea7ddf2c8b1b753c4fd","infoHashBuffer":{"type":"Buffer","data":[55,162,146,114,182,203,74,156,122,175,30,167,221,242,200,177,183,83,196,253]},"announce":[],"urlList":[]}}